<svg width="46" height="40" viewBox="0 0 46 40" fill="none" xmlns="http://www.w3.org/2000/svg">
<path d="M45.666 27.1979C45.666 34.1176 40.0564 39.7272 33.1367 39.7272L14.3428 39.7272C12.4207 39.7272 10.8625 38.169 10.8625 36.2468L10.8625 12.5805C10.8625 8.73617 13.9789 5.61977 17.8232 5.61977L42.1856 5.61977C44.1078 5.61977 45.666 7.17797 45.666 9.10012L45.666 27.1979Z" fill="#E8F5E9"/>
<path d="M20.1283 17.2057C19.9607 17.2057 19.805 17.1596 19.6668 17.0855V17.0874C19.6668 17.3511 19.5643 17.5988 19.3783 17.7842C19.1924 17.9702 18.9449 18.0727 18.6815 18.0727C18.5115 18.0727 18.3539 18.0255 18.2141 17.9494C18.2 18.1906 18.1036 18.4161 17.9316 18.5883C17.7456 18.7743 17.4982 18.8768 17.2346 18.8768C16.7109 18.8768 16.2857 18.4651 16.2551 17.9492C16.093 18.0368 15.9099 18.0827 15.7209 18.0706C15.2058 18.0368 14.8024 17.5917 14.8024 17.0571V12.6255L14.2978 13.4997C14.1056 13.8341 13.7458 14.0417 13.3584 14.0417C13.1697 14.0417 12.9832 13.9922 12.8181 13.8975C12.6124 13.7783 12.4653 13.5869 12.4042 13.358C12.3427 13.1289 12.3745 12.8893 12.4934 12.684C12.4935 12.684 14.1444 9.82506 14.2452 9.64944C14.2571 9.62304 14.2912 9.54646 14.3203 9.48119C14.348 9.41887 14.3718 9.35492 14.3946 9.29063C14.8924 7.88507 16.1252 7.01197 17.6119 7.01197C19.5426 7.01197 21.1133 8.71518 21.1133 10.8087L21.1135 16.2202C21.1135 16.4836 21.0112 16.7311 20.8254 16.9172C20.6394 17.1032 20.3919 17.2057 20.1282 17.2057L20.1283 17.2057ZM17.612 7.53551C16.3344 7.53551 15.3162 8.2571 14.888 9.46572C14.8606 9.54247 14.8321 9.61922 14.7988 9.694C14.7022 9.91063 14.7022 9.91063 14.675 9.94179L14.6714 9.93867C14.5366 10.193 14.1361 10.8865 12.9467 12.946C12.8978 13.0304 12.8849 13.1285 12.9098 13.2223C12.935 13.3161 12.9956 13.3951 13.0794 13.4435C13.3395 13.5929 13.6957 13.4965 13.8439 13.2382L14.8375 11.5179C14.8969 11.4154 15.0169 11.3651 15.1321 11.3962C15.2465 11.4269 15.3261 11.5307 15.3261 11.6491V17.0572C15.3261 17.3124 15.5186 17.5326 15.7552 17.5482C15.8917 17.5554 16.0189 17.5097 16.1145 17.4142C16.2015 17.3273 16.2493 17.2115 16.2493 17.0877V13.5507C16.2493 13.4061 16.3666 13.2888 16.5112 13.2888C16.6559 13.2888 16.7731 13.4059 16.7731 13.5507L16.773 17.8917C16.773 18.1462 16.9801 18.3533 17.2346 18.3533C17.3583 18.3533 17.4744 18.3054 17.5615 18.2185C17.6484 18.1314 17.6963 18.0153 17.6963 17.8917V13.5507C17.6963 13.4061 17.8133 13.2888 17.9581 13.2888C18.1028 13.2888 18.22 13.4059 18.22 13.5507L18.2199 17.047V17.0877C18.2199 17.3421 18.427 17.5492 18.6817 17.5492C18.8052 17.5492 18.9209 17.5011 19.0085 17.4139C19.0954 17.3271 19.1433 17.2114 19.1433 17.0875V13.5505C19.1433 13.4059 19.2604 13.2887 19.4052 13.2887C19.5499 13.2887 19.6671 13.4057 19.6671 13.5505L19.6668 16.2204C19.6668 16.475 19.8739 16.6822 20.1283 16.6822C20.2521 16.6822 20.3678 16.6341 20.4548 16.5474C20.542 16.4601 20.5897 16.344 20.5897 16.2204L20.5899 10.8089C20.5899 9.00414 19.254 7.53556 17.6119 7.53556L17.612 7.53551Z" fill="#103E13"/>
<path d="M9.83859 20.9668L13.6389 18.6869C14.0971 18.4118 14.6867 18.5287 14.9806 18.9533C15.0878 19.1079 15.1426 19.2881 15.1511 19.4717C15.2928 19.3977 15.4469 19.3575 15.6039 19.3575C15.6842 19.3575 15.7649 19.3675 15.8446 19.3874C16.1 19.4511 16.3151 19.6107 16.4504 19.8364C16.5859 20.0623 16.6254 20.3272 16.5616 20.5822C16.5027 20.8182 16.3592 21.0168 16.1597 21.1531C16.2992 21.2354 16.4196 21.3477 16.5052 21.4907C16.6407 21.7167 16.6802 21.9814 16.6165 22.2368C16.5528 22.4918 16.3932 22.7069 16.1672 22.8426L16.1659 22.8434C16.303 22.9255 16.4212 23.0367 16.5059 23.1776C16.6415 23.4036 16.681 23.6684 16.6172 23.9237C16.5533 24.1789 16.3937 24.3941 16.168 24.5295L11.5278 27.3133C10.6617 27.8327 9.66053 28.012 8.70905 27.8176C7.74904 27.6215 6.95398 27.0697 6.47056 26.2638C5.70552 24.9887 5.82017 23.4823 6.76919 22.3325C6.81265 22.2801 6.85545 22.2266 6.89432 22.1712C6.93548 22.1126 6.98353 22.0437 6.99993 22.0201C7.09816 21.8447 8.70104 18.9567 8.70088 18.9571C8.86274 18.665 9.16612 18.4997 9.47901 18.4999C9.62497 18.4999 9.77305 18.5358 9.90967 18.6115C10.0746 18.7037 10.2132 18.838 10.3101 18.9999C10.5094 19.332 10.5164 19.7475 10.3288 20.0838L9.83859 20.9668ZM9.86138 19.2691C9.81055 19.1843 9.74068 19.1167 9.65524 19.0689C9.47862 18.9711 9.25625 19.0348 9.15901 19.2107C8.01206 21.277 7.62109 21.9812 7.4702 22.2318L7.47365 22.2326C7.46102 22.2746 7.46102 22.2746 7.32294 22.4719C7.27604 22.5386 7.22504 22.6027 7.17305 22.6659C6.357 23.6546 6.26225 24.8988 6.91935 25.9944C7.32638 26.673 7.99909 27.1383 8.81362 27.3046C9.63702 27.472 10.5049 27.3162 11.2581 26.8643L15.8988 24.0803C16.0048 24.0169 16.0795 23.916 16.1094 23.7965C16.1392 23.6771 16.1207 23.5529 16.0571 23.447C15.9262 23.2289 15.642 23.1572 15.4239 23.2886L13.1346 24.662C13.0106 24.7365 12.8495 24.6965 12.7753 24.5723C12.7008 24.4483 12.741 24.2875 12.865 24.213L15.1545 22.8396L15.898 22.3935C16.0039 22.3299 16.0789 22.229 16.1087 22.1098C16.1386 21.9903 16.12 21.8659 16.0564 21.7602C15.9254 21.5419 15.6412 21.4709 15.4232 21.6018L12.3902 23.4213C12.2659 23.4959 12.1053 23.4555 12.0309 23.3316C11.9564 23.2076 11.9968 23.0467 12.1206 22.9723L15.8431 20.7392C15.949 20.6756 16.0238 20.5749 16.0536 20.4553C16.0835 20.3359 16.0649 20.2118 16.0015 20.1058C15.938 20.0001 15.8372 19.9253 15.7176 19.8954C15.5974 19.8656 15.4738 19.8841 15.3681 19.9474L14.679 20.3609C14.6789 20.3609 14.6789 20.361 14.6787 20.361H14.6786L11.6457 22.1805C11.5214 22.2553 11.3607 22.215 11.2864 22.0908C11.2119 21.9668 11.2523 21.806 11.3761 21.7315L14.4091 19.912C14.5151 19.8484 14.59 19.7475 14.6198 19.6283C14.6526 19.4974 14.6277 19.3636 14.55 19.2514C14.4152 19.0565 14.1269 19.0046 13.9083 19.136L9.27095 21.918C9.16944 21.9787 9.0394 21.9639 8.95428 21.8817C8.86901 21.7994 8.84982 21.67 8.90722 21.5665L9.8715 19.8292C9.96826 19.6555 9.96448 19.441 9.86133 19.2692L9.86138 19.2691Z" fill="#103E13"/>
<path d="M27.9983 26.2636C27.515 27.0696 26.7202 27.6213 25.76 27.8175C24.8084 28.0115 23.8075 27.8325 22.9413 27.3132L18.3006 24.5293C18.0748 24.3938 17.9151 24.1786 17.8511 23.9231C17.7876 23.6681 17.8273 23.4033 17.9626 23.1776C18.0471 23.0366 18.1655 22.9254 18.3027 22.8432L18.3014 22.8424C18.0756 22.7069 17.9159 22.4918 17.8523 22.2366C17.7883 21.9814 17.828 21.7164 17.9634 21.4905C18.0507 21.3453 18.1702 21.2318 18.3067 21.1513C18.1086 21.015 17.9659 20.8171 17.9072 20.5823C17.8432 20.3269 17.8829 20.0621 18.0184 19.8364C18.1537 19.6106 18.369 19.451 18.6242 19.3872C18.7039 19.3672 18.7847 19.3574 18.8648 19.3574C19.0219 19.3575 19.176 19.3974 19.3177 19.4715C19.3264 19.288 19.381 19.1078 19.4883 18.9531C19.7823 18.5289 20.3714 18.4115 20.8302 18.6868L24.6304 20.9663L24.1406 20.084C23.9527 19.7472 23.9595 19.3316 24.1588 18.9994C24.2559 18.8377 24.3946 18.7034 24.5604 18.6104C24.6967 18.5349 24.8443 18.4992 24.9899 18.4992C25.3026 18.4994 25.6063 18.6643 25.768 18.9564C26.3315 19.9717 27.3948 21.8865 27.4696 22.0201C27.4855 22.0433 27.5336 22.1121 27.5747 22.1707C27.6139 22.2263 27.6562 22.2794 27.7 22.3322C28.6489 23.4824 28.7633 24.9887 27.9983 26.2636L27.9983 26.2636ZM27.296 22.666C27.2438 22.6028 27.1927 22.5384 27.1461 22.472C27.0044 22.2709 27.0008 22.2657 26.9901 22.213C26.8245 21.939 26.4204 21.2115 25.3097 19.2105C25.2123 19.0348 24.9909 18.9707 24.8146 19.0681C24.7279 19.1167 24.6582 19.1844 24.6073 19.2692C24.5044 19.4409 24.5004 19.6554 24.5977 19.8295L25.5616 21.5664C25.6192 21.67 25.6 21.7993 25.5149 21.8816C25.4299 21.9641 25.3 21.9785 25.198 21.9178L20.5607 19.1358C20.3421 19.0048 20.054 19.0561 19.9188 19.2513C19.8411 19.3635 19.8163 19.4973 19.8488 19.628C19.8787 19.7474 19.9536 19.8481 20.0597 19.9117C20.06 19.9119 20.0602 19.9122 20.0605 19.9123L23.0926 21.7313C23.2166 21.8058 23.2568 21.9665 23.1823 22.0907C23.1078 22.2145 22.9473 22.255 22.823 22.1804L19.1005 19.9473C18.9949 19.884 18.8706 19.8653 18.7512 19.8953C18.6315 19.9251 18.5308 19.9999 18.4673 20.106C18.4037 20.2118 18.3854 20.3359 18.4149 20.4553C18.4447 20.5747 18.5197 20.6756 18.6256 20.7392L19.35 21.1736L22.3479 22.9723C22.4719 23.0468 22.5121 23.2075 22.4376 23.3316C22.3632 23.4554 22.2026 23.4958 22.0783 23.4213L19.0456 21.6018C18.8275 21.4706 18.5434 21.5418 18.4123 21.7602C18.3486 21.8662 18.3303 21.9903 18.3598 22.1097C18.3896 22.2291 18.4646 22.3298 18.5707 22.3936L19.3142 22.8396L21.6034 24.2131C21.7273 24.2875 21.7675 24.4482 21.6931 24.5724C21.6186 24.6962 21.4581 24.7369 21.3338 24.6621L19.0446 23.2886C18.939 23.2253 18.8152 23.2066 18.6951 23.2367C18.5757 23.2665 18.4747 23.3413 18.4113 23.4471C18.3478 23.553 18.3293 23.6773 18.3588 23.7965C18.3886 23.9159 18.4636 24.0166 18.5697 24.0804L23.2104 26.8643C23.9635 27.3161 24.8319 27.4726 25.6549 27.3046C26.4692 27.1383 27.142 26.6731 27.549 25.9945C28.2068 24.8987 28.1121 23.6543 27.2963 22.6659L27.296 22.666Z" fill="#103E13"/>
</svg>
