<svg width="46" height="40" viewBox="0 0 46 40" fill="none" xmlns="http://www.w3.org/2000/svg">
<path d="M45.9187 27.1979C45.9187 34.1176 40.3092 39.7272 33.3894 39.7272L14.5956 39.7272C12.6734 39.7272 11.1152 38.169 11.1152 36.2468L11.1152 12.5805C11.1152 8.73617 14.2316 5.61977 18.0759 5.61977L42.4384 5.61977C44.3605 5.61977 45.9187 7.17797 45.9187 9.10012L45.9187 27.1979Z" fill="#E8F5E9"/>
<path d="M17.3729 7.70801C14.8871 7.70801 12.8634 9.75019 12.8634 12.2466C12.8634 13.8259 13.6743 15.2203 14.8989 16.0331C13.4199 16.5277 12.1401 17.4519 11.2014 18.6611C10.6824 18.2619 10.1025 17.9409 9.47742 17.7109C10.4254 17.0071 11.0448 15.8766 11.0448 14.606C11.0448 12.4888 9.33245 10.7555 7.22801 10.7555C5.12358 10.7555 3.41119 12.4888 3.41119 14.606C3.41119 15.8773 4.03118 17.0084 4.97993 17.7121C2.46811 18.639 0.674194 21.0658 0.674194 23.9217V25.9279C0.674451 26.0809 0.735627 26.2274 0.844097 26.3351C0.952566 26.443 1.09934 26.5032 1.25228 26.5027H10.0541C10.0754 26.505 10.0967 26.5063 10.1181 26.506H24.6282C24.6495 26.5063 24.6711 26.505 24.6922 26.5027H33.4947C33.8111 26.5014 34.0673 26.2446 34.0681 25.9279V23.9217C34.0681 21.0658 32.2773 18.639 29.7668 17.7119C30.7155 17.0084 31.3355 15.8771 31.3355 14.6058C31.3355 12.4885 29.6231 10.7553 27.5187 10.7553C25.4143 10.7553 23.7019 12.4885 23.7019 14.6058C23.7019 15.8764 24.3216 17.0071 25.2696 17.7106C24.6432 17.9412 24.063 18.2633 23.5433 18.6634C22.6051 17.4535 21.3271 16.5279 19.8481 16.0331C21.0723 15.2203 21.8836 13.8259 21.8836 12.2466C21.8836 9.75019 19.8589 7.70801 17.373 7.70801H17.3729ZM17.3729 8.85956C19.2321 8.85956 20.7309 10.3684 20.7309 12.2466C20.7309 14.1102 19.2554 15.6043 17.4168 15.6283C17.4022 15.6283 17.3878 15.6262 17.3729 15.6262C17.358 15.6262 17.3438 15.6283 17.3289 15.6283C15.4903 15.6046 14.0159 14.1102 14.0159 12.2466C14.0159 10.3681 15.5134 8.85956 17.3726 8.85956H17.3729ZM7.22808 11.907C8.70325 11.907 9.89335 13.1043 9.89335 14.606C9.89335 16.0976 8.71864 17.2897 7.25736 17.3059C7.24759 17.3059 7.23808 17.3049 7.22806 17.3049C7.21829 17.3049 7.20878 17.3059 7.19876 17.3059C5.73748 17.2897 4.56277 16.0973 4.56277 14.606C4.56277 13.1044 5.75287 11.907 7.22804 11.907H7.22808ZM27.5184 11.907C28.9935 11.907 30.1836 13.1043 30.1836 14.606C30.1836 16.0976 29.0089 17.2897 27.5476 17.3059C27.5379 17.3059 27.5284 17.3049 27.5183 17.3049C27.5086 17.3049 27.4991 17.3059 27.489 17.3059C26.0277 17.2897 24.853 16.0973 24.853 14.606C24.853 13.1044 26.0431 11.907 27.5183 11.907H27.5184ZM17.3288 16.7798C17.3435 16.78 17.3578 16.7818 17.3728 16.7818C17.3874 16.7818 17.4018 16.7798 17.4167 16.7798C21.104 16.8034 24.0549 19.7797 24.0549 23.5055L24.0546 25.3541H10.6914V23.5055C10.6914 19.7794 13.6415 16.8035 17.3283 16.7798H17.3288ZM7.18399 18.4588C7.19864 18.459 7.21304 18.4608 7.22795 18.4608C7.24286 18.4608 7.25699 18.4588 7.2719 18.4588C8.51906 18.4688 9.65725 18.8988 10.5636 19.6183C9.91503 20.7658 9.53999 22.0902 9.53999 23.5058V25.35H1.82528V23.9217C1.82528 20.8937 4.20602 18.4824 7.18386 18.4585L7.18399 18.4588ZM27.4743 18.4588C27.4892 18.459 27.5033 18.4608 27.5182 18.4608C27.5331 18.4608 27.5473 18.4588 27.5622 18.4588C30.54 18.4824 32.9208 20.894 32.9208 23.9219V25.35H25.2021L25.2018 23.5058C25.2018 22.091 24.8278 20.7675 24.1806 19.6203C25.0871 18.8999 26.2261 18.4688 27.4743 18.4588H27.4743Z" fill="#103E13"/>
</svg>
