<svg width="46" height="40" viewBox="0 0 46 40" fill="none" xmlns="http://www.w3.org/2000/svg">
<path d="M45.7923 27.1979C45.7923 34.1176 40.1828 39.7272 33.263 39.7272L14.4692 39.7272C12.547 39.7272 10.9888 38.169 10.9888 36.2468L10.9888 12.5805C10.9888 8.73617 14.1052 5.61977 17.9495 5.61977L42.312 5.61977C44.2341 5.61977 45.7923 7.17797 45.7923 9.10012L45.7923 27.1979Z" fill="#E8F5E9"/>
<path d="M19.2834 13.9802C19.0662 13.9802 18.8896 13.8039 18.8896 13.5865V12.9173C18.8896 12.7001 19.0659 12.5236 19.2834 12.5236C19.5006 12.5236 19.6771 12.6998 19.6771 12.9173V13.5865C19.6771 13.8039 19.5006 13.9802 19.2834 13.9802Z" fill="#103E13"/>
<path d="M17.628 13.9802C17.4108 13.9802 17.2343 13.8039 17.2343 13.5865V12.9173C17.2343 12.7001 17.4105 12.5236 17.628 12.5236C17.8452 12.5236 18.0217 12.6998 18.0217 12.9173V13.5865C18.0215 13.8039 17.8455 13.9802 17.628 13.9802Z" fill="#103E13"/>
<path d="M15.9727 13.9802C15.7555 13.9802 15.579 13.8039 15.579 13.5865V12.9173C15.579 12.7001 15.7553 12.5236 15.9727 12.5236C16.1899 12.5236 16.3665 12.6998 16.3665 12.9173V13.5865C16.3665 13.8039 16.1902 13.9802 15.9727 13.9802Z" fill="#103E13"/>
<path d="M19.2834 16.7166C19.0662 16.7166 18.8896 16.5403 18.8896 16.3228V15.6539C18.8896 15.4368 19.0659 15.2602 19.2834 15.2602C19.5006 15.2602 19.6771 15.4365 19.6771 15.6539V16.3228C19.6771 16.5403 19.5006 16.7166 19.2834 16.7166Z" fill="#103E13"/>
<path d="M17.628 16.7166C17.4108 16.7166 17.2343 16.5403 17.2343 16.3228V15.6539C17.2343 15.4368 17.4105 15.2602 17.628 15.2602C17.8452 15.2602 18.0217 15.4365 18.0217 15.6539V16.3228C18.0215 16.5403 17.8455 16.7166 17.628 16.7166Z" fill="#103E13"/>
<path d="M15.9727 16.7166C15.7555 16.7166 15.579 16.5403 15.579 16.3228V15.6539C15.579 15.4368 15.7553 15.2602 15.9727 15.2602C16.1899 15.2602 16.3665 15.4365 16.3665 15.6539V16.3228C16.3665 16.5403 16.1902 16.7166 15.9727 16.7166Z" fill="#103E13"/>
<path d="M19.2834 19.453C19.0662 19.453 18.8896 19.2768 18.8896 19.0593V18.3901C18.8896 18.173 19.0659 17.9964 19.2834 17.9964C19.5006 17.9964 19.6771 18.1727 19.6771 18.3901V19.0593C19.6771 19.2768 19.5006 19.453 19.2834 19.453Z" fill="#103E13"/>
<path d="M17.628 19.453C17.4108 19.453 17.2343 19.2768 17.2343 19.0593V18.3901C17.2343 18.173 17.4105 17.9964 17.628 17.9964C17.8452 17.9964 18.0217 18.1727 18.0217 18.3901V19.0593C18.0215 19.2768 17.8455 19.453 17.628 19.453Z" fill="#103E13"/>
<path d="M15.9727 19.453C15.7555 19.453 15.579 19.2768 15.579 19.0593V18.3901C15.579 18.173 15.7553 17.9964 15.9727 17.9964C16.1899 17.9964 16.3665 18.1727 16.3665 18.3901V19.0593C16.3665 19.2768 16.1902 19.453 15.9727 19.453Z" fill="#103E13"/>
<path d="M19.2834 22.1889C19.0662 22.1889 18.8896 22.0126 18.8896 21.7951V21.126C18.8896 20.9088 19.0659 20.7322 19.2834 20.7322C19.5006 20.7322 19.6771 20.9085 19.6771 21.126V21.7951C19.6771 22.0126 19.5006 22.1889 19.2834 22.1889Z" fill="#103E13"/>
<path d="M17.628 22.1889C17.4108 22.1889 17.2343 22.0126 17.2343 21.7951V21.126C17.2343 20.9088 17.4105 20.7322 17.628 20.7322C17.8452 20.7322 18.0217 20.9085 18.0217 21.126V21.7951C18.0215 22.0126 17.8455 22.1889 17.628 22.1889Z" fill="#103E13"/>
<path d="M15.9727 22.1889C15.7555 22.1889 15.579 22.0126 15.579 21.7951V21.126C15.579 20.9088 15.7553 20.7322 15.9727 20.7322C16.1899 20.7322 16.3665 20.9085 16.3665 21.126V21.7951C16.3665 22.0126 16.1902 22.1889 15.9727 22.1889Z" fill="#103E13"/>
<path d="M19.2834 24.9252C19.0662 24.9252 18.8896 24.749 18.8896 24.5315V23.8626C18.8896 23.6454 19.0659 23.4689 19.2834 23.4689C19.5006 23.4689 19.6771 23.6452 19.6771 23.8626V24.5315C19.6771 24.7487 19.5006 24.9252 19.2834 24.9252Z" fill="#103E13"/>
<path d="M17.628 24.9252C17.4108 24.9252 17.2343 24.749 17.2343 24.5315V23.8626C17.2343 23.6454 17.4105 23.4689 17.628 23.4689C17.8452 23.4689 18.0217 23.6452 18.0217 23.8626V24.5315C18.0215 24.7487 17.8455 24.9252 17.628 24.9252Z" fill="#103E13"/>
<path d="M15.9727 24.9252C15.7555 24.9252 15.579 24.749 15.579 24.5315L15.5793 23.8626C15.5793 23.6454 15.7555 23.4689 15.973 23.4689C16.1902 23.4689 16.3668 23.6452 16.3668 23.8626V24.5315C16.3665 24.7487 16.1902 24.9252 15.9727 24.9252Z" fill="#103E13"/>
<path d="M4.72451 27.6484C4.72451 27.8656 4.90079 28.0422 5.11826 28.0422H29.0963C29.3135 28.0422 29.49 27.8659 29.49 27.6484C29.49 27.4312 29.3138 27.2547 29.0963 27.2547H28.3684V15.9496C28.3684 15.7324 28.1921 15.5559 27.9747 15.5559L21.546 15.5561V7.40577C21.546 7.26794 21.474 7.14053 21.3565 7.06914C21.2393 6.99747 21.0926 6.99308 20.9707 7.05651L13.6618 10.8619C13.5313 10.9297 13.4501 11.0643 13.4501 11.2112V18.3304H6.37657C6.15938 18.3304 5.98282 18.5066 5.98282 18.7241V27.2547H5.11738C4.90019 27.2545 4.72418 27.4307 4.72418 27.6482L4.72451 27.6484ZM21.5461 21.5196H27.5813V27.255L21.5461 27.2547V21.5196ZM21.5461 18.7834H27.5813V20.7324L21.5461 20.7321V18.7834ZM21.5461 16.3432H27.5813V17.9965H21.5461V16.3432ZM14.2371 11.4503L20.7583 8.0548V27.2544H14.2371V11.4503ZM8.71675 24.1099C8.71675 23.2927 9.3642 22.6277 10.1602 22.6277C10.9562 22.6277 11.6039 23.2924 11.6039 24.1099V27.2549H8.71675V24.1099ZM6.77029 19.1177H13.4499V27.2547H12.3914V24.1097C12.3914 22.8584 11.3909 21.8403 10.1602 21.8403C8.93009 21.8403 7.92955 22.8582 7.92955 24.1097V27.2547H6.77029V19.1177Z" fill="#103E13"/>
</svg>
