<svg width="34" height="34" viewBox="0 0 34 34" fill="none" xmlns="http://www.w3.org/2000/svg">
<g clip-path="url(#clip0_211_2056)">
<path d="M31.7852 9.85827C31.7852 9.88181 31.7852 9.91123 31.779 9.92888C31.7484 10.1584 31.7484 10.3878 31.7667 10.6232C31.779 10.6821 31.7913 10.7409 31.8403 10.788C31.92 10.8762 32.0426 10.8586 32.0917 10.7527C32.1162 10.6997 32.1162 10.6468 32.1039 10.5938C32.0426 10.3702 32.0304 10.1348 32.0243 9.90534C32.0243 9.89358 32.0243 9.87592 32.0243 9.85827C32.0917 9.85239 32.153 9.8465 32.2082 9.8465C32.2511 9.84062 32.2879 9.83473 32.3186 9.81708C32.4105 9.77001 32.4105 9.66998 32.3124 9.6229C32.2756 9.60525 32.2266 9.59937 32.1837 9.59937C32.0304 9.60525 31.8771 9.60525 31.7238 9.60525C31.6687 9.60525 31.6135 9.61114 31.5583 9.61702C31.5276 9.6229 31.4909 9.6229 31.4664 9.64056C31.4234 9.65821 31.3989 9.68763 31.3989 9.72882C31.405 9.77001 31.4234 9.79355 31.4664 9.8112C31.4909 9.82885 31.5215 9.83473 31.5522 9.83473C31.6257 9.84062 31.7055 9.85239 31.7852 9.85827ZM33.4711 10.1289C33.4711 10.1348 33.4772 10.1407 33.4772 10.1407C33.5018 10.2996 33.5263 10.4526 33.5447 10.6056C33.5508 10.6585 33.557 10.7056 33.5937 10.7468C33.6734 10.8468 33.7961 10.835 33.8512 10.7291C33.8758 10.6762 33.8819 10.6232 33.8696 10.5644C33.8328 10.3878 33.8144 10.2113 33.7777 10.0407C33.7531 9.93476 33.7225 9.83473 33.6918 9.74059C33.6734 9.68175 33.6305 9.64055 33.557 9.63467C33.4834 9.6229 33.4282 9.65821 33.3975 9.71117C33.3608 9.75824 33.3301 9.80531 33.3056 9.85827C33.2627 9.95242 33.2259 10.0466 33.1769 10.1348C33.1707 10.1584 33.1646 10.176 33.1523 10.1937C33.1462 10.1819 33.1401 10.176 33.1401 10.176C33.0603 10.0289 32.9868 9.88181 32.9071 9.74059C32.8948 9.72882 32.8887 9.71705 32.8826 9.70528C32.8458 9.65233 32.8029 9.6229 32.7354 9.6229C32.6741 9.62879 32.625 9.66409 32.5944 9.71705C32.5821 9.74059 32.5821 9.75824 32.576 9.78178C32.5515 9.97007 32.5208 10.1584 32.4963 10.3467C32.484 10.4526 32.4779 10.5585 32.4779 10.6644C32.4718 10.6879 32.4779 10.7174 32.4902 10.7409C32.5025 10.788 32.5392 10.8174 32.5883 10.8233C32.6496 10.8292 32.6925 10.8115 32.7109 10.7644C32.7293 10.7291 32.7354 10.6997 32.7416 10.6703C32.7661 10.5644 32.7845 10.4643 32.8029 10.3643C32.8151 10.3055 32.8212 10.2584 32.8397 10.1937C32.8519 10.2172 32.8641 10.2349 32.8764 10.2525C32.9316 10.3231 32.9868 10.3937 33.0542 10.4526C33.1217 10.4996 33.1769 10.4938 33.232 10.4408C33.2443 10.429 33.2504 10.4232 33.2627 10.4114C33.3179 10.329 33.3853 10.2466 33.4405 10.1642C33.4527 10.1525 33.4589 10.1407 33.4711 10.1289Z" fill="#3A3B7B"/>
<path d="M19.3449 9.97388C19.3023 10.0857 19.2941 10.1663 19.3138 10.2332C19.3355 10.3243 19.392 10.3541 19.4685 10.3309C20.1886 10.16 21.7677 10.6451 22.3523 10.7803C22.4902 10.8087 22.6024 10.6379 22.5083 10.4848C22.371 10.3364 20.7926 9.70141 20.1903 9.66679C19.9543 9.65398 19.5323 9.59588 19.3449 9.97388Z" fill="#3A3B7B"/>
<path d="M25.5161 7.91824C25.5929 7.96076 25.6358 8.00132 25.657 8.04663C25.6885 8.10607 25.6719 8.14719 25.6189 8.16818C25.1429 8.39115 24.5094 9.35109 24.2538 9.68216C24.1918 9.75832 24.0488 9.71407 24.0272 9.58882C24.0317 9.44721 24.5931 8.40546 24.9065 8.12172C25.0297 8.01094 25.2331 7.79358 25.5161 7.91824Z" fill="#3A3B7B"/>
<path d="M21.7254 7.44574C21.8176 7.37904 21.9134 7.35567 21.9623 7.39901C22.6805 7.98851 23.0614 8.92204 23.2972 9.77666C23.3061 9.79657 23.3067 9.82514 23.2996 9.85495C23.2966 9.88042 23.2772 9.90734 23.2464 9.92816C23.2135 9.95115 23.1852 9.95815 23.1719 9.93834C22.8571 9.52743 21.0593 7.92865 21.7254 7.44574Z" fill="#3A3B7B"/>
<path d="M6.51689 17.6662C6.68901 17.5432 6.87615 17.4408 7.07417 17.3613C7.28135 17.3045 7.50218 17.3139 7.70328 17.3882C7.90434 17.4625 8.07479 17.5976 8.18873 17.7732C8.29066 17.9482 8.33053 18.1504 8.30239 18.3491C8.27426 18.5478 8.17962 18.7324 8.03268 18.875C7.91878 18.9906 7.78946 19.0913 7.64818 19.1745C7.01846 19.565 6.38313 19.934 5.74783 20.3245C5.61783 20.4222 5.47993 20.5099 5.33543 20.5866C5.11565 20.6918 4.86447 20.72 4.62533 20.6662C4.38619 20.6126 4.17413 20.4803 4.02581 20.2924C3.91494 20.1594 3.82137 20.0139 3.74717 19.8592C3.1453 18.645 2.52115 17.4362 1.94157 16.2006C1.67407 15.6658 1.45673 15.0507 1.24496 14.457C1.15334 14.2845 1.13545 14.0845 1.19509 13.8995C1.25474 13.7145 1.38722 13.5592 1.56436 13.4665C1.74149 13.3738 1.9493 13.3512 2.14359 13.4033C2.33788 13.4554 2.50332 13.5782 2.60473 13.7456C2.91644 14.1432 3.19236 14.5655 3.42952 15.0079C4.03138 16.0776 4.60539 17.1473 5.18497 18.185C5.21872 18.2423 5.25593 18.2977 5.29642 18.3508C5.73265 18.1748 6.14295 17.9446 6.51689 17.6662Z" fill="#3A3B7B"/>
<path d="M12.7398 17.293C11.3634 18.8388 9.05619 18.4483 7.89704 16.4586C7.07224 15.0466 6.92736 12.7145 8.72184 11.2436C9.10503 10.9357 9.56323 10.7259 10.0537 10.6339C10.6551 10.5511 11.2684 10.653 11.8059 10.9248C12.3433 11.1967 12.7775 11.6247 13.0464 12.1476C14.0272 13.8592 13.8879 16.0414 12.7398 17.293ZM12.1826 13.688C12.0363 13.2674 11.743 12.9083 11.3522 12.6717C11.1311 12.5205 10.8624 12.4469 10.5914 12.4635C10.3204 12.48 10.0636 12.5857 9.86426 12.7627C9.06736 13.442 8.90014 15.0519 9.47971 16.0093C9.5536 16.1655 9.66208 16.3042 9.79766 16.4159C9.93324 16.5275 10.0926 16.6094 10.2646 16.6558C10.4366 16.7021 10.617 16.7119 10.7934 16.6843C10.9697 16.6567 11.1376 16.5924 11.2854 16.4961C11.7173 16.1746 12.0343 15.732 12.192 15.2297C12.3499 14.7274 12.3407 14.1904 12.1659 13.6934L12.1826 13.688Z" fill="#3A3B7B"/>
<path d="M18.3572 14.3619C18.2163 14.391 18.0707 14.3928 17.9291 14.367C17.7875 14.3413 17.6526 14.2887 17.5325 14.2122C17.4274 14.1545 17.3369 14.0751 17.2675 13.9799C17.1982 13.8846 17.1518 13.7757 17.1315 13.6611C17.1113 13.5466 17.1177 13.4291 17.1504 13.3173C17.1831 13.2054 17.2413 13.1018 17.3207 13.014C17.4591 12.8377 17.6554 12.7114 17.878 12.6557C18.4591 12.4938 19.0573 12.3952 19.6613 12.3615C19.794 12.3467 19.9285 12.3575 20.0568 12.3932C20.1851 12.429 20.3047 12.489 20.4085 12.5697C20.5123 12.6504 20.5983 12.7503 20.6614 12.8633C20.7245 12.9763 20.7634 13.1003 20.7759 13.228C20.95 13.8552 20.9691 14.5127 20.8316 15.1482C20.3301 17.2021 18.6025 17.9081 16.6631 17.2502C16.1187 17.0743 15.6414 16.7466 15.2922 16.3089C14.8264 15.7817 14.4962 15.157 14.3281 14.485C14.1919 13.8865 14.2068 13.2655 14.3716 12.6737C14.5364 12.082 14.8463 11.5366 15.2755 11.0832C15.6827 10.5904 16.2113 10.2026 16.8136 9.95461C17.1942 9.75328 17.6395 9.69603 18.0619 9.79415C18.1577 9.8196 18.2447 9.8692 18.3138 9.93779C18.3829 10.0064 18.4317 10.0915 18.455 10.1842C18.4783 10.277 18.4753 10.3741 18.4464 10.4654C18.4174 10.5567 18.3636 10.6389 18.2904 10.7034C18.1512 10.8243 18 10.9318 17.839 11.0243C17.3435 11.3272 16.9124 11.7174 16.5684 12.1743C16.3429 12.47 16.1876 12.8095 16.1134 13.169C16.0393 13.5284 16.0481 13.8991 16.1393 14.255C16.2657 14.7402 16.5461 15.1757 16.9417 15.5012C18.1678 16.571 19.7616 15.5386 19.483 14.0784C19.0762 14.1747 18.7195 14.2764 18.3572 14.3619Z" fill="#3A3B7B"/>
<path d="M25.8473 17.3786C24.0361 18.4483 21.9742 17.3786 21.5227 15.1321C21.194 13.5275 21.8181 11.2811 24.0027 10.4253C24.4675 10.2471 24.9716 10.1845 25.4683 10.2434C26.0651 10.3483 26.6126 10.6302 27.0335 11.0496C27.4544 11.4689 27.7276 12.0045 27.8145 12.5808C28.1823 14.4903 27.3464 16.5281 25.8473 17.3786ZM26.4771 13.7789C26.4765 13.3346 26.3127 12.9046 26.0145 12.5647C25.8551 12.3545 25.6246 12.2039 25.3624 12.1385C25.1002 12.0732 24.8225 12.0972 24.5767 12.2064C23.5959 12.6129 22.9048 14.0891 23.1556 15.1749C23.1748 15.3453 23.2324 15.5097 23.3247 15.6564C23.4169 15.8032 23.5414 15.9288 23.6895 16.0246C23.8375 16.1204 24.0056 16.184 24.182 16.2109C24.3584 16.2378 24.5387 16.2274 24.7104 16.1805C25.2289 16.0066 25.6778 15.6818 25.9945 15.2512C26.3112 14.8207 26.4799 14.3059 26.4771 13.7789Z" fill="#3A3B7B"/>
<path d="M29.646 17.8279C29.6187 18.0237 29.5115 18.201 29.3479 18.3209C29.1843 18.4407 28.9779 18.4933 28.7739 18.4671C28.5699 18.4408 28.3852 18.3379 28.2603 18.1809C28.1354 18.0239 28.0806 17.8257 28.108 17.63C28.1353 17.4342 28.2426 17.2569 28.4061 17.137C28.5697 17.0172 28.7761 16.9646 28.9801 16.9908C29.1841 17.0171 29.3688 17.12 29.4937 17.277C29.6186 17.434 29.6734 17.6321 29.646 17.8279ZM29.1612 10.6125C29.2672 10.4571 29.4227 10.3388 29.6045 10.2752C29.7863 10.2116 29.9846 10.2061 30.1699 10.2595C30.3583 10.3047 30.5247 10.4107 30.6414 10.5597C30.7581 10.7087 30.8179 10.8916 30.8108 11.0778C30.7862 11.3766 30.7397 11.6733 30.6715 11.9657C30.4876 12.9552 30.3092 13.9447 30.1142 14.9235C30.025 15.314 29.908 15.6884 29.7798 16.0842C29.7352 16.2079 29.6607 16.3197 29.5625 16.4105C29.5014 16.4787 29.4234 16.5311 29.3356 16.5627C29.2479 16.5943 29.1532 16.6042 29.0604 16.5914C28.9677 16.5786 28.8797 16.5436 28.8048 16.4895C28.7299 16.4354 28.6704 16.3641 28.6318 16.2821C28.5656 16.135 28.5296 15.977 28.5259 15.8168C28.5259 15.1535 28.5259 14.485 28.5705 13.8163C28.6463 12.8622 28.7953 11.9147 29.0163 10.9815C29.0424 10.8565 29.0914 10.737 29.1612 10.6285V10.6125Z" fill="#3A3B7B"/>
<path fill-rule="evenodd" clip-rule="evenodd" d="M4.16231 22.126C4.09651 22.267 4.07847 22.4242 4.11062 22.5754C4.13201 22.7748 4.179 22.9709 4.2505 23.1593C4.33978 23.39 4.43968 23.6181 4.56285 23.8992C4.59118 23.9639 4.62078 24.0314 4.65176 24.1025C4.81787 24.4834 5.02629 24.9701 5.3043 25.6746C5.38299 25.8747 5.45287 26.0765 5.52323 26.2796C5.55166 26.3617 5.58019 26.444 5.60939 26.5266C5.71406 26.82 5.89416 27.0836 6.13289 27.2925C6.23426 27.4074 6.36872 27.4911 6.51949 27.5329C6.6732 27.5756 6.83669 27.5729 6.98877 27.5251C7.14084 27.4774 7.27442 27.3868 7.37214 27.2652C7.46795 27.146 7.52492 27.0023 7.536 26.8522C7.59816 26.5597 7.57694 26.2565 7.47449 25.9746C7.3119 25.5065 7.12668 25.0378 6.9131 24.5793L6.91212 24.5773C6.56076 23.8599 6.2036 23.1475 5.82954 22.4349L5.82674 22.4299C5.71724 22.2442 5.57493 22.0782 5.40622 21.9394C5.29668 21.8155 5.1456 21.7319 4.97875 21.7031C4.80835 21.6737 4.6326 21.7033 4.48289 21.7868C4.34126 21.8644 4.22899 21.9832 4.16231 22.126Z" fill="#3A3B7B"/>
<path fill-rule="evenodd" clip-rule="evenodd" d="M9.52889 20.3596C8.97797 20.2227 8.4026 20.2027 7.84289 20.3012C7.40936 20.3422 6.98299 20.4381 6.68692 20.6282C6.53633 20.725 6.41459 20.8492 6.34686 21.0071C6.27877 21.1659 6.27008 21.3475 6.32588 21.5498C6.42776 21.9204 6.56007 22.2807 6.69192 22.6399L6.71328 22.6981L6.71379 22.6994C7.11077 23.7428 7.51153 24.7827 7.91594 25.819C7.96309 25.9824 8.02978 26.1399 8.11466 26.2885L8.11625 26.2912C8.22837 26.4759 8.37217 26.641 8.54159 26.7797C8.62632 26.8559 8.73111 26.9087 8.84472 26.9322C8.95946 26.956 9.07878 26.9491 9.18968 26.9122C9.30063 26.8754 9.39887 26.81 9.47374 26.7232C9.5474 26.6378 9.59563 26.535 9.61334 26.4255C9.68644 26.1282 9.66302 25.8164 9.54618 25.5322C9.50973 25.4365 9.48113 25.3387 9.45098 25.2358C9.44093 25.2015 9.43075 25.1666 9.42 25.1311C10.3457 24.7838 11.3307 24.3168 11.677 23.2304C11.8127 22.855 11.824 22.4485 11.7094 22.0666C11.5947 21.6843 11.3594 21.3454 11.0359 21.0967C10.5956 20.7485 10.0812 20.4969 9.52889 20.3596ZM8.00179 21.6921C8.02002 21.6871 8.03838 21.6824 8.0568 21.6781C8.65946 21.5871 9.27605 21.7083 9.79304 22.0191C10.0209 22.1712 10.1142 22.3402 10.1302 22.5028C10.1468 22.6702 10.0834 22.8516 9.95597 23.026C9.71523 23.3554 9.27591 23.619 8.87907 23.6682C8.58978 23.0287 8.29599 22.3634 8.00179 21.6921Z" fill="#3A3B7B"/>
<path d="M13.2018 19.1891C13.8579 18.8983 14.6706 18.8481 15.3065 19.0526C15.4667 19.0973 15.6057 19.1942 15.6996 19.3265C15.793 19.4581 15.8361 19.6166 15.8217 19.775C15.8208 19.8779 15.7945 19.9791 15.745 20.0704C15.6946 20.1633 15.6216 20.2433 15.5323 20.3035C15.4429 20.3636 15.3398 20.4023 15.2316 20.4161C15.1233 20.4299 15.0133 20.4186 14.9106 20.3829L14.9028 20.3802L14.8955 20.3765C14.8429 20.3501 14.7871 20.3303 14.7294 20.3173L14.7258 20.3165C14.2784 20.2025 13.8564 20.3915 13.7023 20.6236C13.6288 20.7343 13.6196 20.8461 13.6809 20.9478C13.7464 21.0566 13.9073 21.1788 14.2327 21.2659C14.3222 21.2895 14.4139 21.3122 14.507 21.3353C14.7643 21.3993 15.0317 21.4657 15.2903 21.5578L15.2913 21.5582C16.4843 21.9938 16.9285 22.8961 16.7764 23.7447C16.626 24.5839 15.8957 25.3477 14.7976 25.5279C14.398 25.6129 13.9821 25.5963 13.5912 25.4798C13.1993 25.363 12.846 25.1498 12.5665 24.8613L12.5592 24.8538C12.4709 24.7451 12.4116 24.6174 12.3853 24.482C12.361 24.3597 12.3738 24.2334 12.4219 24.1178C12.4698 24.0029 12.5507 23.9035 12.6552 23.8311C12.7655 23.7489 12.8986 23.6997 13.0378 23.6894C13.1765 23.6792 13.3154 23.7081 13.4372 23.7726C13.5589 23.829 13.6721 23.901 13.7737 23.9866L13.7757 23.9882C13.9554 24.146 14.1729 24.1871 14.3814 24.149C14.593 24.1104 14.7919 23.9902 14.9199 23.8308C15.047 23.6724 15.0981 23.4842 15.0375 23.3015C14.9765 23.1175 14.7933 22.9113 14.3907 22.7389C14.2854 22.6961 14.1763 22.6615 14.0628 22.6278C14.0321 22.6187 14.001 22.6097 13.9695 22.6005C13.8856 22.576 13.7992 22.5509 13.7145 22.5231C13.6562 22.504 13.5983 22.4859 13.541 22.468C13.3844 22.419 13.2317 22.3713 13.0848 22.3073C12.765 22.2028 12.4887 22.0022 12.297 21.735C12.1046 21.4668 12.0077 21.1461 12.0209 20.8207C12.0219 20.0278 12.5422 19.4816 13.2018 19.1891Z" fill="#3A3B7B"/>
<path d="M21.5196 19.1047C21.3923 19.045 21.2517 19.0167 21.1102 19.0223C20.9688 19.0279 20.831 19.0672 20.7093 19.1367C20.5884 19.2057 20.4872 19.3023 20.4147 19.4179C20.3482 19.5153 20.3021 19.6242 20.2792 19.7386C20.2562 19.8529 20.2568 19.9703 20.2808 20.0844C20.3045 20.2309 20.3307 20.3734 20.3567 20.5139C20.3996 20.7465 20.4414 20.9738 20.469 21.2055L20.47 21.2114C20.5328 21.5749 20.5656 21.9425 20.5686 22.3109L20.5689 22.3161C20.5903 22.714 20.4491 23.1041 20.1754 23.4037L20.1711 23.409C20.082 23.5185 19.963 23.6021 19.8272 23.6504C19.6915 23.6987 19.5445 23.7098 19.4026 23.6825C19.2606 23.6551 19.1294 23.5904 19.0236 23.4956C18.9178 23.4008 18.8415 23.2792 18.8034 23.1452C18.7221 22.8627 18.675 22.5722 18.663 22.2794L18.8019 20.157C18.804 20.1293 18.8063 20.1008 18.8087 20.0721C18.814 20.0076 18.8194 19.942 18.8217 19.8807C18.8249 19.7906 18.8221 19.698 18.8003 19.6103C18.7779 19.5206 18.7353 19.4353 18.6598 19.3627C18.585 19.2908 18.484 19.2378 18.357 19.2017C18.1273 19.1379 17.9331 19.1399 17.7712 19.2058C17.6093 19.2717 17.4983 19.3941 17.4198 19.5355C17.3419 19.6757 17.2919 19.8417 17.254 20.008C17.2259 20.1313 17.2033 20.2608 17.1819 20.3841C17.1745 20.4266 17.1672 20.4683 17.1599 20.5088L17.1597 20.51C17.0449 21.186 17.0107 21.8725 17.0578 22.5559C17.0666 22.9253 17.1469 23.2899 17.2946 23.6311C17.4612 24.0713 17.763 24.4527 18.1601 24.725C18.558 24.9979 19.0329 25.1482 19.5219 25.1561C20.0108 25.1641 20.4908 25.0292 20.8981 24.7695C21.3048 24.5102 21.62 24.1385 21.802 23.7036C22.0566 23.1496 22.1761 22.5472 22.1514 21.9422C22.1365 21.5004 22.1114 21.0553 22.0865 20.6125C22.0743 20.3953 22.0621 20.1785 22.0511 19.9631C22.0456 19.747 21.9714 19.5378 21.8384 19.3634C21.7561 19.2531 21.6465 19.1642 21.5196 19.1047Z" fill="#3A3B7B"/>
<path d="M26.0222 22.4327C26.0093 22.4484 25.9957 22.4647 25.9815 22.4817C25.8781 21.9087 25.7822 21.336 25.6861 20.7624C25.6517 20.5566 25.617 20.3499 25.5822 20.1438L25.5783 20.1209L25.5656 20.101C25.5416 20.0636 25.5392 20.027 25.5392 19.9488V19.9397L25.5378 19.9308C25.5118 19.7693 25.4357 19.6191 25.3195 19.4997C25.2036 19.3807 25.053 19.2978 24.8874 19.2619C24.7221 19.2227 24.5484 19.2313 24.3882 19.2867C24.2283 19.3419 24.089 19.4411 23.9876 19.5718C23.9033 19.6721 23.8342 19.7834 23.7824 19.9023C23.6648 20.1585 23.5463 20.4153 23.4274 20.6729L23.4253 20.6773C23.1285 21.3202 22.8297 21.9674 22.5395 22.6197L22.5386 22.6218C22.3605 23.0447 22.2135 23.4904 22.067 23.9346C22.0377 24.0233 22.0085 24.112 21.979 24.2004C21.9261 24.3406 21.9029 24.4895 21.9109 24.6384C21.9012 24.7716 21.9345 24.9046 22.0062 25.0192C22.0793 25.1362 22.1888 25.2282 22.3192 25.2824C22.4574 25.3406 22.612 25.3529 22.7584 25.3175C22.9045 25.2821 23.0343 25.2012 23.1272 25.0874C23.2459 24.9473 23.3481 24.7944 23.4313 24.6325C23.6771 24.1499 23.912 23.6615 24.1458 23.1752C24.2363 22.9871 24.3242 22.8187 24.4242 22.6352C24.4311 22.6578 24.4381 22.6799 24.4454 22.702C24.5502 23.145 24.7271 23.5692 24.9697 23.9593C25.0155 24.0419 25.0795 24.1141 25.1571 24.171C25.2356 24.2285 25.3262 24.2689 25.4226 24.2894C25.519 24.3099 25.619 24.31 25.7154 24.2896C25.8117 24.2694 25.9026 24.2289 25.9812 24.1717L26.1367 24.06L27.3436 23.0843L27.2722 23.5208C27.1742 24.1209 27.077 24.7159 26.9737 25.3111C26.9062 25.5748 26.9063 25.8504 26.974 26.1141C27.0034 26.2625 27.0782 26.3991 27.1888 26.5066C27.3004 26.6149 27.4433 26.6885 27.5991 26.7178C27.7548 26.7471 27.9161 26.7309 28.0621 26.6711C28.2059 26.6123 28.3283 26.5138 28.4138 26.3883C28.6128 26.1514 28.7367 25.8645 28.7707 25.5619C28.8219 25.1345 28.8798 24.7013 28.9377 24.2682C29.0044 23.769 29.0711 23.2699 29.1274 22.7805L29.1276 22.7789C29.1818 22.2431 29.208 21.7051 29.2062 21.1668C29.2181 20.9967 29.1739 20.8272 29.0799 20.6824C28.9855 20.5371 28.8458 20.4241 28.6806 20.3594C28.5088 20.2845 28.3165 20.2644 28.132 20.3023C27.9486 20.3399 27.7827 20.4327 27.6581 20.5671C27.4355 20.7647 27.2267 20.9761 27.033 21.2L27.0317 21.2015C26.8202 21.4545 26.6102 21.7123 26.4015 21.9686C26.2746 22.1243 26.1481 22.2797 26.0222 22.4327Z" fill="#3A3B7B"/>
</g>
<defs>
<clipPath id="clip0_211_2056">
<rect width="32.7153" height="20.186" fill="white" transform="translate(1.16046 7.37701)"/>
</clipPath>
</defs>
</svg>
