<svg width="39" height="34" viewBox="0 0 39 34" fill="none" xmlns="http://www.w3.org/2000/svg">
<g clip-path="url(#clip0_211_2052)">
<path d="M38.5802 14.1077C38.5842 14.0787 38.5842 14.0494 38.5802 14.0203C38.584 13.9967 38.584 13.9726 38.5802 13.9489L38.2966 11.9075C38.2557 11.6633 38.1463 11.4351 37.9807 11.2483L37.932 11.1927L37.8429 11.1053L32.9331 6.95911L33.0709 7.09415C32.9582 6.96198 32.8167 6.85626 32.6569 6.78478C32.4971 6.7133 32.3229 6.67787 32.1473 6.68112H30.6565C30.4141 6.67641 30.1772 6.75197 29.984 6.89558C29.7812 6.75283 29.5369 6.67766 29.2872 6.68112H27.7965C27.601 6.67801 27.4081 6.72558 27.2374 6.81903C27.0666 6.91248 26.9241 7.04849 26.8243 7.21329C26.6703 7.44866 26.6124 7.73226 26.6622 8.00758L26.8486 9.29432C26.7251 9.22571 26.5854 9.19012 26.4435 9.19108H19.2246C18.9656 9.19267 18.7126 9.26709 18.4954 9.40552C18.2854 9.53438 18.1169 9.71888 18.0093 9.93769L17.4503 9.46907C17.2302 9.26948 16.9398 9.1613 16.6401 9.16724H5.31354C5.05362 9.17189 4.79947 9.24307 4.57628 9.37376C4.27094 9.54897 4.04716 9.83386 3.95241 10.168L0.355144 21.9633C0.28793 22.1576 0.281318 22.3672 0.336155 22.5653C0.390992 22.7633 0.504794 22.9409 0.663022 23.0753C0.704252 23.1095 0.747543 23.1414 0.792657 23.1706C0.792657 23.1706 0.719727 23.1229 0.679217 23.0832L5.58903 27.2373C5.79672 27.4248 6.06827 27.5296 6.35056 27.5312H17.7663C18.027 27.5246 18.2813 27.4506 18.5035 27.3167C18.6292 27.2494 18.7417 27.1606 18.8357 27.0546L18.8762 26.999L18.941 26.9196L18.9896 26.8322L19.5244 27.285C19.7291 27.465 19.9948 27.564 20.2698 27.563H31.7097C31.9701 27.5545 32.224 27.4807 32.447 27.3485C32.5699 27.2771 32.6817 27.1888 32.7792 27.0864L32.8197 27.0308L32.8845 26.9514C32.9189 26.9011 32.9488 26.848 32.9736 26.7925C33.0001 26.7444 33.0218 26.6938 33.0384 26.6416L36.3197 15.8711V15.7757C36.3238 15.7388 36.3238 15.7015 36.3197 15.6645V15.5931C36.3237 15.5694 36.3237 15.5452 36.3197 15.5215C36.3234 15.4713 36.3234 15.4209 36.3197 15.3706H37.373C37.4646 15.3789 37.5568 15.3789 37.6484 15.3706H37.7214C37.7807 15.3533 37.8378 15.3293 37.8915 15.2992H37.9726L38.1184 15.188L38.1832 15.1403L38.2966 14.9973V14.9497L38.3776 14.8146C38.3731 14.7884 38.3731 14.7615 38.3776 14.7352C38.3733 14.7223 38.3733 14.7084 38.3776 14.6955C38.3949 14.6489 38.4084 14.6011 38.4182 14.5525C38.4144 14.5369 38.4144 14.5205 38.4182 14.5049C38.4142 14.4812 38.4142 14.457 38.4182 14.4334C38.4182 14.4334 38.5802 14.1236 38.5802 14.1077Z" fill="black"/>
<path d="M16.9723 10.0728C17.0153 10.1109 17.0453 10.161 17.0584 10.2164C17.0714 10.2718 17.0668 10.3298 17.0452 10.3825L13.4561 22.1698C13.4109 22.2985 13.3184 22.4061 13.1968 22.4716C13.0978 22.5365 12.9833 22.5749 12.8646 22.5828H1.45705C1.35963 22.5782 1.26733 22.5387 1.19778 22.4716C1.15641 22.4341 1.12737 22.3853 1.11438 22.3316C1.10139 22.2779 1.10505 22.2215 1.12487 22.1698L4.72214 10.3825C4.76358 10.2522 4.85314 10.1418 4.97329 10.0728C5.07388 10.0125 5.18787 9.9771 5.30548 9.9695H16.713C16.8097 9.97042 16.9024 10.0073 16.9723 10.0728ZM11.0173 19.7949L13.1644 12.7575H7.15274L5.0138 19.7949H11.0173ZM27.8613 10.1919C27.9002 10.2362 27.9489 10.2714 28.0036 10.2948C28.0583 10.3182 28.1177 10.3292 28.1773 10.3269H29.66C29.7164 10.3275 29.772 10.3139 29.8217 10.2875C29.8713 10.2611 29.9132 10.2227 29.9435 10.176C29.9698 10.1395 29.9885 10.0982 29.9982 10.0546C30.0079 10.0109 30.0086 9.96578 30.0002 9.92185L29.7086 7.82492C29.6808 7.72788 29.6309 7.63826 29.5628 7.56281C29.5238 7.51846 29.4752 7.4833 29.4205 7.45992C29.3658 7.43654 29.3064 7.42556 29.2468 7.42778H27.7641C27.7076 7.42724 27.652 7.44081 27.6024 7.46722C27.5528 7.49363 27.5108 7.53199 27.4805 7.5787C27.4238 7.6899 27.3995 7.76138 27.4238 7.82492L27.7236 9.92185C27.739 10.024 27.7872 10.1186 27.8613 10.1919ZM32.5686 7.80904C32.5408 7.71198 32.4909 7.62237 32.4227 7.54692C32.3854 7.50274 32.3382 7.46759 32.2848 7.44417C32.2315 7.42075 32.1733 7.40971 32.1149 7.41189H30.6241C30.5686 7.41034 30.5136 7.42355 30.4651 7.45012C30.4166 7.47668 30.3764 7.51563 30.3486 7.56281C30.2947 7.63327 30.2714 7.72179 30.2838 7.80904L30.5836 9.90596C30.6024 10.007 30.6501 10.1007 30.7213 10.176C30.7609 10.2195 30.8097 10.2541 30.8643 10.2774C30.9188 10.3007 30.9778 10.3122 31.0373 10.311H32.5281C32.5835 10.3118 32.638 10.2982 32.6863 10.2717C32.7347 10.2452 32.7751 10.2068 32.8035 10.1601C32.8317 10.1246 32.8514 10.0833 32.8612 10.0393C32.8711 9.99536 32.8707 9.94979 32.8602 9.90596L32.5686 7.80904ZM26.5569 10.9862L26.411 9.95362H19.2246C19.1118 9.95972 19.0026 9.99538 18.9086 10.0569C18.849 10.0888 18.797 10.133 18.7565 10.1865C18.7159 10.24 18.6877 10.3014 18.6737 10.3667L18.0742 12.3365C18.0502 12.3857 18.042 12.4409 18.0507 12.4948C18.0594 12.5487 18.0845 12.5987 18.1228 12.6383C18.1911 12.7013 18.2803 12.738 18.3739 12.7416H27.1079L24.9608 19.779H16.2512C16.1389 19.7815 16.0295 19.8145 15.9353 19.8743C15.8207 19.9456 15.737 20.056 15.7003 20.1841L15.0926 22.1539C15.0728 22.2045 15.0676 22.2594 15.0776 22.3126C15.0876 22.3659 15.1124 22.4154 15.1493 22.4557C15.2155 22.5229 15.3054 22.5627 15.4005 22.5669H26.8405C26.9588 22.5569 27.0728 22.5188 27.1726 22.4557C27.2923 22.3898 27.382 22.282 27.4238 22.1539L30.7132 11.3833H27.0106C26.9519 11.3845 26.8935 11.3738 26.8392 11.3519C26.7848 11.3301 26.7357 11.2975 26.6947 11.2562C26.6277 11.1842 26.5803 11.0968 26.5569 11.0021V10.9862Z" fill="white"/>
</g>
<defs>
<clipPath id="clip0_211_2052">
<rect width="38.2838" height="20.8821" fill="white" transform="translate(0.299377 6.68091)"/>
</clipPath>
</defs>
</svg>
