<svg width="39" height="34" viewBox="0 0 39 34" fill="none" xmlns="http://www.w3.org/2000/svg">
<g clip-path="url(#clip0_211_2080)">
<path d="M38.8874 14.1077C38.8914 14.0787 38.8914 14.0494 38.8874 14.0203C38.8912 13.9967 38.8912 13.9726 38.8874 13.9489L38.6038 11.9075C38.5629 11.6633 38.4535 11.4351 38.2878 11.2483L38.2392 11.1927L38.1501 11.1053L33.2403 6.95911L33.3781 7.09415C33.2654 6.96198 33.1239 6.85626 32.9641 6.78478C32.8043 6.7133 32.6301 6.67787 32.4545 6.68112H30.9637C30.7213 6.67641 30.4844 6.75197 30.2912 6.89558C30.0884 6.75283 29.8441 6.67766 29.5944 6.68112H28.1037C27.9081 6.67801 27.7153 6.72558 27.5446 6.81903C27.3738 6.91248 27.2313 7.04849 27.1315 7.21329C26.9775 7.44866 26.9196 7.73226 26.9694 8.00758L27.1558 9.29432C27.0323 9.22571 26.8926 9.19012 26.7506 9.19108H19.5318C19.2728 9.19267 19.0198 9.26709 18.8026 9.40552C18.5926 9.53438 18.4241 9.71888 18.3165 9.93769L17.7575 9.46907C17.5374 9.26948 17.247 9.1613 16.9473 9.16724H5.62073C5.36081 9.17189 5.10666 9.24307 4.88347 9.37376C4.57813 9.54897 4.35435 9.83386 4.2596 10.168L0.662334 21.9633C0.59512 22.1576 0.588508 22.3672 0.643345 22.5653C0.698182 22.7633 0.811983 22.9409 0.970212 23.0753C1.01144 23.1095 1.05473 23.1414 1.09985 23.1706C1.09985 23.1706 1.02692 23.1229 0.986407 23.0832L5.89622 27.2373C6.10391 27.4248 6.37546 27.5296 6.65775 27.5312H18.0735C18.3342 27.5246 18.5885 27.4506 18.8107 27.3167C18.9364 27.2494 19.0489 27.1606 19.1429 27.0546L19.1834 26.999L19.2482 26.9196L19.2968 26.8322L19.8316 27.285C20.0363 27.465 20.3019 27.564 20.577 27.563H32.0169C32.2773 27.5545 32.5312 27.4807 32.7542 27.3485C32.8771 27.2771 32.9889 27.1888 33.0864 27.0864L33.1269 27.0308L33.1917 26.9514C33.2261 26.9011 33.256 26.848 33.2808 26.7925C33.3073 26.7444 33.329 26.6938 33.3456 26.6416L36.6269 15.8711V15.7757C36.631 15.7388 36.631 15.7015 36.6269 15.6645V15.5931C36.6308 15.5694 36.6308 15.5452 36.6269 15.5215C36.6306 15.4713 36.6306 15.4209 36.6269 15.3706H37.6802C37.7718 15.3789 37.864 15.3789 37.9556 15.3706H38.0286C38.0879 15.3533 38.145 15.3293 38.1987 15.2992H38.2798L38.4256 15.188L38.4904 15.1403L38.6038 14.9973V14.9497L38.6848 14.8146C38.6803 14.7884 38.6803 14.7615 38.6848 14.7352C38.6805 14.7223 38.6805 14.7084 38.6848 14.6955C38.7021 14.6489 38.7156 14.6011 38.7253 14.5525C38.7216 14.5369 38.7216 14.5205 38.7253 14.5049C38.7214 14.4812 38.7214 14.457 38.7253 14.4334C38.7253 14.4334 38.8874 14.1236 38.8874 14.1077Z" fill="black"/>
<path d="M17.2795 10.0728C17.3225 10.1109 17.3525 10.161 17.3656 10.2164C17.3786 10.2718 17.374 10.3298 17.3524 10.3825L13.7633 22.1698C13.7181 22.2985 13.6256 22.4061 13.504 22.4716C13.405 22.5365 13.2905 22.5749 13.1718 22.5828H1.76424C1.66682 22.5782 1.57452 22.5387 1.50497 22.4716C1.4636 22.4341 1.43456 22.3853 1.42157 22.3316C1.40858 22.2779 1.41224 22.2215 1.43206 22.1698L5.02933 10.3825C5.07077 10.2522 5.16033 10.1418 5.28048 10.0728C5.38107 10.0125 5.49506 9.9771 5.61267 9.9695H17.0202C17.1169 9.97042 17.2095 10.0073 17.2795 10.0728ZM11.3245 19.7949L13.4716 12.7575H7.45993L5.32099 19.7949H11.3245ZM28.1685 10.1919C28.2074 10.2362 28.2561 10.2714 28.3108 10.2948C28.3655 10.3182 28.4248 10.3292 28.4845 10.3269H29.9671C30.0236 10.3275 30.0792 10.3139 30.1289 10.2875C30.1785 10.2611 30.2204 10.2227 30.2507 10.176C30.277 10.1395 30.2956 10.0982 30.3054 10.0546C30.3151 10.0109 30.3158 9.96578 30.3074 9.92185L30.0157 7.82492C29.988 7.72788 29.9381 7.63826 29.87 7.56281C29.831 7.51846 29.7824 7.4833 29.7277 7.45992C29.6729 7.43654 29.6136 7.42556 29.5539 7.42778H28.0713C28.0148 7.42724 27.9592 7.44081 27.9096 7.46722C27.8599 7.49363 27.818 7.53199 27.7877 7.5787C27.731 7.6899 27.7067 7.76138 27.731 7.82492L28.0308 9.92185C28.0462 10.024 28.0944 10.1186 28.1685 10.1919ZM32.8758 7.80904C32.848 7.71198 32.7981 7.62237 32.7299 7.54692C32.6926 7.50274 32.6454 7.46759 32.592 7.44417C32.5387 7.42075 32.4805 7.40971 32.422 7.41189H30.9313C30.8758 7.41034 30.8208 7.42355 30.7723 7.45012C30.7238 7.47668 30.6836 7.51563 30.6558 7.56281C30.6019 7.63327 30.5786 7.72179 30.591 7.80904L30.8907 9.90596C30.9096 10.007 30.9573 10.1007 31.0285 10.176C31.0681 10.2195 31.1169 10.2541 31.1714 10.2774C31.226 10.3007 31.285 10.3122 31.3445 10.311H32.8352C32.8906 10.3118 32.9452 10.2982 32.9935 10.2717C33.0419 10.2452 33.0823 10.2068 33.1107 10.1601C33.1389 10.1246 33.1586 10.0833 33.1684 10.0393C33.1783 9.99536 33.1779 9.94979 33.1674 9.90596L32.8758 7.80904ZM26.8641 10.9862L26.7182 9.95362H19.5318C19.419 9.95972 19.3098 9.99538 19.2158 10.0569C19.1562 10.0888 19.1042 10.133 19.0637 10.1865C19.0231 10.24 18.9949 10.3014 18.9809 10.3667L18.3813 12.3365C18.3574 12.3857 18.3492 12.4409 18.3579 12.4948C18.3666 12.5487 18.3917 12.5987 18.4299 12.6383C18.4983 12.7013 18.5874 12.738 18.6811 12.7416H27.4151L25.268 19.779H16.5584C16.4461 19.7815 16.3367 19.8145 16.2425 19.8743C16.1279 19.9456 16.0442 20.056 16.0075 20.1841L15.3998 22.1539C15.38 22.2045 15.3748 22.2594 15.3848 22.3126C15.3948 22.3659 15.4196 22.4154 15.4565 22.4557C15.5227 22.5229 15.6126 22.5627 15.7077 22.5669H27.1477C27.266 22.5569 27.38 22.5188 27.4798 22.4557C27.5995 22.3898 27.6892 22.282 27.731 22.1539L31.0204 11.3833H27.3178C27.259 11.3845 27.2007 11.3738 27.1464 11.3519C27.092 11.3301 27.0428 11.2975 27.0019 11.2562C26.9349 11.1842 26.8875 11.0968 26.8641 11.0021V10.9862Z" fill="white"/>
</g>
<defs>
<clipPath id="clip0_211_2080">
<rect width="38.2838" height="20.8821" fill="white" transform="translate(0.606567 6.68091)"/>
</clipPath>
</defs>
</svg>
