<svg width="37" height="34" viewBox="0 0 37 34" fill="none" xmlns="http://www.w3.org/2000/svg">
<g clip-path="url(#clip0_211_2076)">
<path d="M8.81751 10.1613C7.40398 10.1613 6.04836 10.7228 5.04885 11.7223L1.78686 14.9843C0.787349 15.9838 0.22583 17.3394 0.22583 18.7529C0.22583 21.6965 2.61202 24.0826 5.55554 24.0826C6.96907 24.0826 8.32469 23.5211 9.3242 22.5216L11.5805 20.2653C11.5805 20.2652 11.5806 20.2653 11.5805 20.2653L18.1547 13.6911C18.6321 13.2137 19.2795 12.9455 19.9546 12.9455C21.0849 12.9455 22.0431 13.6822 22.3753 14.7015L24.4501 12.6267C23.5036 11.1443 21.8439 10.1613 19.9546 10.1613C18.5411 10.1613 17.1855 10.7228 16.186 11.7223L7.35544 20.5528C6.87807 21.0302 6.23064 21.2984 5.55554 21.2984C4.14973 21.2984 3.01011 20.1588 3.01011 18.7529C3.01011 18.0778 3.27828 17.4304 3.75564 16.953L7.01761 13.6911C7.49498 13.2137 8.14241 12.9455 8.81751 12.9455C9.94779 12.9455 10.9059 13.6822 11.2382 14.7016L13.313 12.6268C12.3665 11.1443 10.7068 10.1613 8.81751 10.1613Z" fill="#394149"/>
<path d="M18.4925 20.5528C18.0152 21.0302 17.3677 21.2984 16.6926 21.2984C15.5626 21.2984 14.6044 20.5619 14.2721 19.5427L12.1974 21.6175C13.1439 23.0997 14.8035 24.0826 16.6926 24.0826C18.1062 24.0826 19.4618 23.5211 20.4613 22.5216L29.2918 13.6911C29.7692 13.2137 30.4166 12.9455 31.0917 12.9455C32.4976 12.9455 33.6372 14.0852 33.6372 15.491C33.6372 16.1661 33.369 16.8135 32.8916 17.2909L29.6297 20.5528C29.1523 21.0302 28.5049 21.2984 27.8298 21.2984C26.6996 21.2984 25.7414 20.5618 25.4092 19.5425L23.3344 21.6173C24.2809 23.0997 25.9405 24.0826 27.8298 24.0826C29.2433 24.0826 30.5989 23.5211 31.5984 22.5216L34.8604 19.2596C35.8599 18.2601 36.4214 16.9045 36.4214 15.491C36.4214 12.5474 34.0353 10.1613 31.0917 10.1613C29.6782 10.1613 28.3226 10.7228 27.3231 11.7223L18.4925 20.5528Z" fill="#394149"/>
</g>
<defs>
<clipPath id="clip0_211_2076">
<rect width="36.1956" height="13.9214" fill="white" transform="translate(0.22583 10.1613)"/>
</clipPath>
</defs>
</svg>
