<svg width="34" height="34" viewBox="0 0 34 34" fill="none" xmlns="http://www.w3.org/2000/svg">
<g clip-path="url(#clip0_211_2072)">
<path d="M30.0806 8.66037C30.0806 8.98473 30.3468 9.24767 30.6752 9.24767H31.2697C31.5981 9.24767 31.8643 8.98473 31.8643 8.66037C31.8643 8.33601 31.5981 8.07306 31.2697 8.07306H30.6752C30.3468 8.07306 30.0806 8.33601 30.0806 8.66037Z" fill="#212326"/>
<path d="M12.8384 26.8669H15.7267L14.8858 26.0363C14.6628 25.8161 14.3604 25.6923 14.045 25.6923H12.8384C8.24126 25.6923 4.51456 22.0111 4.51456 17.47C4.51456 12.9289 8.24126 9.24768 12.8384 9.24768H22.3513C26.9485 9.24768 30.6752 12.9289 30.6752 17.47C30.6752 22.0111 26.9485 25.6923 22.3513 25.6923H18.7927C18.3197 25.6923 17.866 25.5067 17.5315 25.1763L16.5464 24.2032C15.9889 23.6525 15.2327 23.3431 14.4443 23.3431H12.8384C9.55471 23.3431 6.8928 20.7136 6.8928 17.47C6.8928 14.2264 9.55471 11.5969 12.8384 11.5969H22.3513C25.635 11.5969 28.2969 14.2264 28.2969 17.47C28.2969 20.7136 25.635 23.3431 22.3513 23.3431H20.0664C19.5933 23.3431 19.1396 23.1574 18.8051 22.827L17.82 21.854C17.2625 21.3032 16.5063 20.9938 15.7179 20.9938H12.8384C10.8682 20.9938 9.27103 19.4161 9.27103 17.47C9.27103 15.5238 10.8682 13.9461 12.8384 13.9461H22.3513C24.3215 13.9461 25.9187 15.5238 25.9187 17.47C25.9187 19.3924 24.3602 20.9553 22.4233 20.9931L22.4229 20.9938H21.5528C21.0797 20.9938 20.626 20.8082 20.2915 20.4778L19.3064 19.5047C18.849 19.0528 18.2578 18.7634 17.6247 18.6741L17.5949 18.6446H12.8384C12.1817 18.6446 11.6493 18.1187 11.6493 17.47C11.6493 16.8213 12.1817 16.2954 12.8384 16.2954H22.3513C23.0081 16.2954 23.5405 16.8213 23.5405 17.47C23.5405 18.1187 23.0081 18.6446 22.3513 18.6446H19.9731L20.814 19.4752C21.0369 19.6955 21.3394 19.8192 21.6548 19.8192H22.3513C23.6648 19.8192 24.7296 18.7674 24.7296 17.47C24.7296 16.1726 23.6648 15.1208 22.3513 15.1208H12.8384C11.5249 15.1208 10.4602 16.1726 10.4602 17.47C10.4602 18.7674 11.5249 19.8192 12.8384 19.8192H17.2043C17.6774 19.8192 18.1311 20.0049 18.4656 20.3353L19.4507 21.3084C20.0082 21.8591 20.7643 22.1685 21.5528 22.1685H22.6486V22.1594C25.1371 22.0079 27.1078 19.9662 27.1078 17.47C27.1078 14.8751 24.9782 12.7715 22.3513 12.7715H12.8384C10.2115 12.7715 8.08191 14.8751 8.08191 17.47C8.08191 20.0649 10.2115 22.1685 12.8384 22.1685H15.7179C16.191 22.1685 16.6447 22.3541 16.9792 22.6845L17.9643 23.6576C18.5218 24.2083 19.2779 24.5177 20.0664 24.5177H22.3513C26.2917 24.5177 29.4861 21.3623 29.4861 17.47C29.4861 13.5776 26.2917 10.4223 22.3513 10.4223H12.8384C8.89798 10.4223 5.70368 13.5776 5.70368 17.47C5.70368 21.3623 8.89798 24.5177 12.8384 24.5177H14.4443C14.9173 24.5177 15.371 24.7033 15.7055 25.0337L16.6907 26.0068C17.2482 26.5575 18.0043 26.8669 18.7927 26.8669H22.3513C27.6052 26.8669 31.8643 22.6598 31.8643 17.47C31.8643 12.2802 27.6052 8.07306 22.3513 8.07306L12.8384 8.07306C7.58453 8.07306 3.32544 12.2802 3.32544 17.47C3.32544 22.6598 7.58453 26.8669 12.8384 26.8669Z" fill="#212326"/>
</g>
<defs>
<clipPath id="clip0_211_2072">
<rect width="28.5388" height="18.7939" fill="white" transform="translate(3.32544 8.07306)"/>
</clipPath>
</defs>
</svg>
