<svg width="34" height="34" viewBox="0 0 34 34" fill="none" xmlns="http://www.w3.org/2000/svg">
<g clip-path="url(#clip0_211_2046)">
<path fill-rule="evenodd" clip-rule="evenodd" d="M9.97907 3.30719C13.8233 3.30719 16.9398 6.4236 16.9398 10.2679V3.30719H23.9005C27.7447 3.30719 30.8612 6.4236 30.8612 10.2679C30.8612 14.1121 27.7447 17.2286 23.9005 17.2286C27.7447 17.2286 30.8612 20.345 30.8612 24.1893C30.8612 26.0981 30.0928 27.8275 28.8485 29.085L28.8224 29.1112L28.7993 29.1342C27.5415 30.3803 25.8109 31.15 23.9005 31.15C22.003 31.15 20.2829 30.3908 19.0273 29.1596C19.011 29.1435 18.9947 29.1274 18.9785 29.1112C18.9632 29.096 18.9481 29.0807 18.933 29.0653C17.7001 27.8095 16.9398 26.0882 16.9398 24.1893C16.9398 28.0335 13.8233 31.15 9.97907 31.15C6.13478 31.15 3.01837 28.0335 3.01837 24.1893V17.2286H9.97907C6.13478 17.2286 3.01837 14.1121 3.01837 10.2679C3.01837 6.4236 6.13478 3.30719 9.97907 3.30719ZM15.5476 10.2679C15.5476 13.3433 13.0545 15.8364 9.97907 15.8364V4.69933C13.0545 4.69933 15.5476 7.19245 15.5476 10.2679ZM29.469 24.1893C29.469 21.1138 26.9759 18.6207 23.9005 18.6207C20.825 18.6207 18.3319 21.1138 18.3319 24.1893H29.469ZM4.41051 18.6207V24.1893C4.41051 27.2647 6.90364 29.7578 9.97907 29.7578C13.0545 29.7578 15.5476 27.2647 15.5476 24.1893V18.6207H4.41051ZM18.3319 15.8364V4.69933H23.9005C26.9759 4.69933 29.469 7.19245 29.469 10.2679C29.469 13.3433 26.9759 15.8364 23.9005 15.8364H18.3319Z" fill="#263238"/>
</g>
<defs>
<clipPath id="clip0_211_2046">
<rect width="27.8428" height="27.8428" fill="white" transform="translate(3.01837 3.30719)"/>
</clipPath>
</defs>
</svg>
