<svg width="34" height="34" viewBox="0 0 34 34" fill="none" xmlns="http://www.w3.org/2000/svg">
<g clip-path="url(#clip0_211_2049)">
<path fill-rule="evenodd" clip-rule="evenodd" d="M10.0459 10.2411L3.09509 17.122C4.48538 18.4983 6.07357 19.6583 7.80514 20.5657C8.28376 21.8225 9.03398 23.0012 10.0558 24.0127C13.9001 27.8183 20.1329 27.8183 23.9772 24.0127C24.999 23.0012 25.7492 21.8225 26.2278 20.5656C27.9594 19.6583 29.5476 18.4983 30.9379 17.122L23.9927 10.2467C23.9875 10.2415 23.9824 10.2364 23.9772 10.2312C20.1329 6.4256 13.9001 6.4256 10.0558 10.2312C10.0525 10.2345 10.0492 10.2378 10.0459 10.2411ZM23.3121 21.8072C21.2865 22.4839 19.1602 22.8305 17.0165 22.8305C14.8728 22.8305 12.7465 22.4839 10.721 21.8072C10.9404 22.0954 11.1827 22.372 11.4479 22.6346C14.5234 25.6791 19.5096 25.6791 22.585 22.6346C22.8502 22.372 23.0926 22.0954 23.3121 21.8072ZM11.5907 11.4716C12.113 11.8131 12.6683 12.1054 13.2494 12.3437C14.4437 12.8334 15.7237 13.0855 17.0165 13.0855C18.3092 13.0855 19.5893 12.8334 20.7836 12.3437C21.3647 12.1054 21.92 11.8131 22.4423 11.4716C19.4053 8.61082 14.6277 8.61082 11.5907 11.4716Z" fill="#3B4158"/>
</g>
<defs>
<clipPath id="clip0_211_2049">
<rect width="27.8428" height="19.4899" fill="white" transform="translate(3.09509 7.37701)"/>
</clipPath>
</defs>
</svg>
